<svg width="88" height="15" viewBox="0 0 88 15" fill="none" xmlns="http://www.w3.org/2000/svg">
<path d="M0.758523 12V3.27273H4.25284C4.89489 3.27273 5.4304 3.3679 5.85938 3.55824C6.28835 3.74858 6.6108 4.01278 6.8267 4.35085C7.04261 4.68608 7.15057 5.07244 7.15057 5.50994C7.15057 5.85085 7.08239 6.15057 6.94602 6.40909C6.80966 6.66477 6.62216 6.875 6.38352 7.03977C6.14773 7.2017 5.87784 7.31676 5.57386 7.38494V7.47017C5.90625 7.48437 6.21733 7.57812 6.5071 7.75142C6.79972 7.92472 7.03693 8.16761 7.21875 8.48011C7.40057 8.78977 7.49148 9.15909 7.49148 9.58807C7.49148 10.0511 7.37642 10.4645 7.14631 10.8281C6.91903 11.1889 6.58239 11.4744 6.13636 11.6847C5.69034 11.8949 5.14063 12 4.48722 12H0.758523ZM2.60369 10.4915H4.10795C4.62216 10.4915 4.99716 10.3935 5.23295 10.1974C5.46875 9.99858 5.58665 9.73437 5.58665 9.40483C5.58665 9.16335 5.52841 8.95028 5.41193 8.76562C5.29545 8.58097 5.12926 8.43608 4.91335 8.33097C4.70028 8.22585 4.44602 8.1733 4.15057 8.1733H2.60369V10.4915ZM2.60369 6.92472H3.97159C4.22443 6.92472 4.44886 6.88068 4.64489 6.79261C4.84375 6.7017 5 6.57386 5.11364 6.40909C5.23011 6.24432 5.28835 6.04688 5.28835 5.81676C5.28835 5.50142 5.17614 5.24716 4.9517 5.05398C4.73011 4.8608 4.41477 4.7642 4.00568 4.7642H2.60369V6.92472ZM39.2429 12V3.27273H41.0881V7.12074H41.2031L44.3438 3.27273H46.5554L43.3168 7.1804L46.5938 12H44.3864L41.9957 8.41193L41.0881 9.51989V12H39.2429ZM52.1804 5.78267C52.1463 5.43892 52 5.17187 51.7415 4.98153C51.483 4.79119 51.1321 4.69602 50.6889 4.69602C50.3878 4.69602 50.1335 4.73864 49.9261 4.82386C49.7188 4.90625 49.5597 5.02131 49.4489 5.16903C49.3409 5.31676 49.2869 5.48438 49.2869 5.67188C49.2813 5.82812 49.3139 5.96449 49.3849 6.08097C49.4588 6.19744 49.5597 6.2983 49.6875 6.38352C49.8153 6.46591 49.9631 6.53835 50.1307 6.60085C50.2983 6.66051 50.4773 6.71165 50.6676 6.75426L51.4517 6.94176C51.8324 7.02699 52.1818 7.14062 52.5 7.28267C52.8182 7.42472 53.0938 7.59943 53.3267 7.80682C53.5597 8.0142 53.7401 8.25852 53.8679 8.53977C53.9986 8.82102 54.0653 9.14347 54.0682 9.5071C54.0653 10.0412 53.929 10.5043 53.6591 10.8963C53.392 11.2855 53.0057 11.5881 52.5 11.804C51.9972 12.017 51.3906 12.1236 50.6804 12.1236C49.9759 12.1236 49.3622 12.0156 48.8395 11.7997C48.3196 11.5838 47.9134 11.2642 47.6207 10.8409C47.331 10.4148 47.179 9.88778 47.1648 9.25994H48.9503C48.9702 9.55256 49.054 9.79687 49.2017 9.9929C49.3523 10.1861 49.5526 10.3324 49.8026 10.4318C50.0554 10.5284 50.3409 10.5767 50.6591 10.5767C50.9716 10.5767 51.2429 10.5312 51.473 10.4403C51.706 10.3494 51.8864 10.223 52.0142 10.0611C52.142 9.89915 52.206 9.71307 52.206 9.50284C52.206 9.30682 52.1477 9.14205 52.0312 9.00852C51.9176 8.875 51.75 8.76136 51.5284 8.66761C51.3097 8.57386 51.0412 8.48864 50.723 8.41193L49.7727 8.1733C49.0369 7.99432 48.456 7.71449 48.0298 7.33381C47.6037 6.95312 47.392 6.44034 47.3949 5.79545C47.392 5.26705 47.5327 4.8054 47.8168 4.41051C48.1037 4.01562 48.4972 3.70739 48.9972 3.4858C49.4972 3.2642 50.0653 3.15341 50.7017 3.15341C51.3494 3.15341 51.9148 3.2642 52.3977 3.4858C52.8835 3.70739 53.2614 4.01562 53.5312 4.41051C53.8011 4.8054 53.9403 5.26278 53.9489 5.78267H52.1804ZM55.3093 12V3.27273H57.1545V6.87358H60.9002V3.27273H62.7411V12H60.9002V8.39489H57.1545V12H55.3093ZM65.7667 12H63.7894L66.8022 3.27273H69.18L72.1886 12H70.2113L68.0252 5.26705H67.957L65.7667 12ZM65.6431 8.5696H70.3136V10.0099H65.6431V8.5696ZM73.239 12V3.27273H76.6822C77.3413 3.27273 77.9038 3.39062 78.3697 3.62642C78.8384 3.85937 79.195 4.19034 79.4393 4.61932C79.6864 5.04545 79.81 5.54687 79.81 6.12358C79.81 6.70312 79.685 7.2017 79.435 7.61932C79.185 8.03409 78.8228 8.35227 78.3484 8.57386C77.8768 8.79545 77.3058 8.90625 76.6353 8.90625H74.3299V7.4233H76.337C76.6893 7.4233 76.9819 7.375 77.2148 7.27841C77.4478 7.18182 77.6211 7.03693 77.7347 6.84375C77.8512 6.65057 77.9094 6.41051 77.9094 6.12358C77.9094 5.83381 77.8512 5.58949 77.7347 5.39062C77.6211 5.19176 77.4464 5.04119 77.2106 4.93892C76.9776 4.83381 76.6836 4.78125 76.3285 4.78125H75.0842V12H73.239ZM77.9521 8.02841L80.1211 12H78.0842L75.962 8.02841H77.9521ZM81.114 12V3.27273H86.9947V4.79403H82.9592V6.87358H86.6921V8.39489H82.9592V10.4787H87.0117V12H81.114Z" fill="#4D87F4"/>
<path d="M37.0223 6.41368C36.875 4.98046 36.192 3.61238 35.0871 2.60912C33.942 1.57329 32.4554 1 30.8884 1C28.1094 1 25.7121 2.78502 24.9621 5.36482C24.4933 4.90879 23.7232 4.60261 23 4.60261C22.2768 4.60261 21.5067 4.90879 21.0379 5.36482C20.2879 2.78502 17.8906 1 15.1116 1C13.5513 1 12.058 1.56678 10.9129 2.60261C9.80804 3.61238 9.125 4.98046 8.97768 6.41368H8V7.58632H8.97768C9.125 9.01954 9.80804 10.3876 10.9129 11.3909C12.058 12.4267 13.5446 13 15.1116 13C18.5134 13 21.279 10.316 21.279 7.00651V7C21.279 6.35505 22.0491 5.59283 23 5.59283C23.9509 5.59283 24.721 6.35505 24.721 7V7.00651C24.721 10.316 27.4866 13 30.8884 13C32.4487 13 33.942 12.4332 35.0871 11.3909C36.192 10.3876 36.875 9.01303 37.0223 7.5798H38V6.40717H37.0223V6.41368ZM30.8884 12.0163C28.0424 12.0163 25.7321 9.76221 25.7321 7C25.7321 4.23127 28.0491 1.98371 30.8884 1.98371C33.7344 1.98371 36.0446 4.23778 36.0446 7C36.0446 9.76873 33.7344 12.0163 30.8884 12.0163ZM15.1116 12.0163C12.2656 12.0163 9.95536 9.76221 9.95536 7C9.95536 4.23127 12.2723 1.98371 15.1116 1.98371C17.9576 1.98371 20.2679 4.23778 20.2679 7C20.2679 9.76873 17.9576 12.0163 15.1116 12.0163Z" fill="#4E4E4E" stroke="#525252"/>
</svg>
